solid x-wing-stand
facet normal 0.0964812396315725 0.311594989891652 0.945304148236734
outer loop
vertex 2.10364233708391 4.92497416744135 11.5669919812499
vertex -0.233728189492788 5.01564431806765 11.7756656040013
vertex -0.464556111737167 -5.59973756037587 15.2983100136347
endloop
endfacet
facet normal -0.0883147601668758 0.351919898890483 0.931854542244432
outer loop
vertex -0.464556111737167 -5.59973756037587 15.2983100136347
vertex 2.08069065378786 0.439103960125624 13.2589298813338
vertex 2.10364233708391 4.92497416744135 11.5669919812499
endloop
endfacet
facet normal -0.0883147601668758 0.351919898890483 0.931854542244432
outer loop
vertex 2.08069065378786 0.439103960125624 13.2589298813338
vertex -0.464556111737167 -5.59973756037587 15.2983100136347
vertex 2.05013823049106 -5.53231886151551 15.511174400777
endloop
endfacet
facet normal -0.793502521294475 0.180682087540818 0.581126261617218
outer loop
vertex 2.59865274826142 5.15088588621054 12.1726672563781
vertex 2.10364233708391 4.92497416744135 11.5669919812499
vertex 2.37713203482839 3.65793817029607 12.3343733630874
endloop
endfacet
facet normal -0.694692018852906 0.256954879647009 0.671846104973203
outer loop
vertex 2.10364233708391 4.92497416744135 11.5669919812499
vertex 2.08069065378786 0.439103960125624 13.2589298813338
vertex 2.37713203482839 3.65793817029607 12.3343733630874
endloop
endfacet
facet normal 0.793502521294475 -0.180682087540805 -0.581126261617222
outer loop
vertex 2.6115708185284 5.23794773790031 12.1632372991668
vertex 2.59865274826142 5.15088588621054 12.1726672563781
vertex 2.10364233708391 4.92497416744135 11.5669919812499
endloop
endfacet
facet normal -0.0964812396315722 -0.311594989891647 -0.945304148236735
outer loop
vertex 2.10364233708391 4.92497416744135 11.5669919812499
vertex -0.233728189492788 5.01564431806765 11.7756656040013
vertex -0.231770256438148 5.10568631500326 11.7457857616396
endloop
endfacet
facet normal 0.0 -0.390232870398226 0.920716192352867
outer loop
vertex 4.32250703586592 -7.57750703586593 0.38
vertex -2.73 -5.985 1.05496216195268
vertex -4.32250703586592 -7.57750703586593 0.38
endloop
endfacet
facet normal 0.0 -0.390232870398226 0.920716192352867
outer loop
vertex -2.73 -5.985 1.05496216195268
vertex 4.32250703586592 -7.57750703586593 0.38
vertex 2.73 -5.985 1.05496216195268
endloop
endfacet
facet normal 0.390232870398226 -1.44856018652145e-018 0.920716192352867
outer loop
vertex 4.32250703586592 -7.57750703586593 0.38
vertex 2.73 5.985 1.05496216195268
vertex 2.73 -5.985 1.05496216195268
endloop
endfacet
facet normal 0.390232870398226 -1.44856018652145e-018 0.920716192352867
outer loop
vertex 2.73 5.985 1.05496216195268
vertex 4.32250703586592 -7.57750703586593 0.38
vertex 4.32250703586592 7.57750703586593 0.38
endloop
endfacet
facet normal 0.0 0.390232870398226 0.920716192352867
outer loop
vertex -2.73 5.985 1.05496216195268
vertex 4.32250703586592 7.57750703586593 0.38
vertex -4.32250703586592 7.57750703586593 0.38
endloop
endfacet
facet normal 0.0 0.390232870398226 0.920716192352867
outer loop
vertex 4.32250703586592 7.57750703586593 0.38
vertex -2.73 5.985 1.05496216195268
vertex 2.73 5.985 1.05496216195268
endloop
endfacet
facet normal 0.743876131379427 0.232516096756708 0.626565691618208
outer loop
vertex -2.09823505003104 5.52786485180009 13.1084487924403
vertex -2.1517391566239 -4.92942817715678 17.0526312119674
vertex -0.464556111737167 -5.59973756037587 15.2983100136347
endloop
endfacet
facet normal 0.607249974966947 0.238309245443304 0.757928869643376
outer loop
vertex -0.233728189492788 5.01564431806765 11.7756656040013
vertex -2.09823505003104 5.52786485180009 13.1084487924403
vertex -0.464556111737167 -5.59973756037587 15.2983100136347
endloop
endfacet
facet normal -0.390232870398226 -1.44856018652145e-018 0.920716192352867
outer loop
vertex -2.73 -5.985 1.05496216195268
vertex -4.32250703586592 7.57750703586593 0.38
vertex -4.32250703586592 -7.57750703586593 0.38
endloop
endfacet
facet normal -0.390232870398226 -1.44856018652145e-018 0.920716192352867
outer loop
vertex -4.32250703586592 7.57750703586593 0.38
vertex -2.73 -5.985 1.05496216195268
vertex -2.73 5.985 1.05496216195268
endloop
endfacet
facet normal 0.0305197810361481 0.874085218338201 -0.48481292685753
outer loop
vertex 2.6115708185284 5.23794773790031 12.1632372991668
vertex 2.10364233708391 4.92497416744135 11.5669919812499
vertex -0.231770256438148 5.10568631500326 11.7457857616396
endloop
endfacet
facet normal 0.0134684131517779 0.923144809229096 -0.384216427343429
outer loop
vertex -2.09747359763626 5.67668951829552 13.0523165188626
vertex 2.6115708185284 5.23794773790031 12.1632372991668
vertex -0.231770256438148 5.10568631500326 11.7457857616396
endloop
endfacet
facet normal 0.209949143566738 0.344097282765681 0.915160323172322
outer loop
vertex 2.59865274826142 5.15088588621054 12.1726672563781
vertex -2.09747359763626 5.67668951829552 13.0523165188626
vertex -2.09823505003104 5.52786485180009 13.1084487924403
endloop
endfacet
facet normal 0.191933417052966 0.0774889662619101 0.978344021050894
outer loop
vertex 2.6115708185284 5.23794773790031 12.1632372991668
vertex -2.09747359763626 5.67668951829552 13.0523165188626
vertex 2.59865274826142 5.15088588621054 12.1726672563781
endloop
endfacet
facet normal -0.00478798260382238 -0.935650124056849 0.352896472885447
outer loop
vertex 2.59865274826142 5.15088588621054 12.1726672563781
vertex -0.233728189492788 5.01564431806765 11.7756656040013
vertex 2.10364233708391 4.92497416744135 11.5669919812499
endloop
endfacet
facet normal -0.00478798260382238 -0.935650124056849 0.352896472885447
outer loop
vertex -0.233728189492788 5.01564431806765 11.7756656040013
vertex 2.59865274826142 5.15088588621054 12.1726672563781
vertex -2.09823505003104 5.52786485180009 13.1084487924403
endloop
endfacet
facet normal 0.0 0.0 1.0
outer loop
vertex -2.73 -5.985 1.05496216195268
vertex -0.736569275371641 -3.97417996541863 1.05496216195269
vertex -2.73 5.985 1.05496216195268
endloop
endfacet
facet normal 0.0 0.0 1.0
outer loop
vertex -0.736569275371641 -3.97417996541863 1.05496216195269
vertex -2.73 -5.985 1.05496216195268
vertex 2.73 -5.985 1.05496216195268
endloop
endfacet
facet normal 0.0 0.0 1.0
outer loop
vertex -0.736569275371641 -3.97417996541863 1.05496216195269
vertex 2.73 -5.985 1.05496216195268
vertex -0.212926297756594 -4.18222070078277 1.05496216195269
endloop
endfacet
facet normal 0.0 0.0 1.0
outer loop
vertex -0.212926297756594 -4.18222070078277 1.05496216195269
vertex 2.73 -5.985 1.05496216195268
vertex 0.646881455242982 -4.15916934261019 1.05496216195269
endloop
endfacet
facet normal 0.0 0.0 1.0
outer loop
vertex 0.646881455242982 -4.15916934261019 1.05496216195269
vertex 2.73 -5.985 1.05496216195268
vertex 0.670758218575601 0.507506295071572 1.05496216195269
endloop
endfacet
facet normal 0.0 0.0 1.0
outer loop
vertex 0.670758218575601 0.507506295071572 1.05496216195269
vertex 2.73 -5.985 1.05496216195268
vertex 0.976398710947454 3.82622674296122 1.05496216195269
endloop
endfacet
facet normal 0.0 0.0 1.0
outer loop
vertex 0.976398710947454 3.82622674296122 1.05496216195269
vertex 2.73 -5.985 1.05496216195268
vertex 0.998015065969411 3.97191103295957 1.05496216195269
endloop
endfacet
facet normal 0.0 0.0 1.0
outer loop
vertex -2.73 5.985 1.05496216195268
vertex -0.695106472933661 4.12965920705916 1.05496216195269
vertex 2.73 5.985 1.05496216195268
endloop
endfacet
facet normal 0.0 0.0 1.0
outer loop
vertex -0.695106472933661 4.12965920705916 1.05496216195269
vertex -2.73 5.985 1.05496216195268
vertex -0.736569275371641 -3.97417996541863 1.05496216195269
endloop
endfacet
facet normal 0.0 0.0 1.0
outer loop
vertex 2.73 5.985 1.05496216195268
vertex -0.695106472933661 4.12965920705916 1.05496216195269
vertex 0.998015065969411 3.97191103295957 1.05496216195269
endloop
endfacet
facet normal 0.0 0.0 1.0
outer loop
vertex 2.73 5.985 1.05496216195268
vertex 0.998015065969411 3.97191103295957 1.05496216195269
vertex 2.73 -5.985 1.05496216195268
endloop
endfacet
facet normal 0.0 0.0 -1.0
outer loop
vertex 4.32250703586592 7.57750703586593 -1.80477854883065e-016
vertex -4.32250703586592 -7.57750703586593 -1.80477854883065e-016
vertex -4.32250703586592 7.57750703586593 -1.80477854883065e-016
endloop
endfacet
facet normal 0.0 0.0 -1.0
outer loop
vertex -4.32250703586592 -7.57750703586593 -1.80477854883065e-016
vertex 4.32250703586592 7.57750703586593 -1.80477854883065e-016
vertex 4.32250703586592 -7.57750703586593 -1.80477854883065e-016
endloop
endfacet
facet normal -1.0 0.0 0.0
outer loop
vertex -4.32250703586592 7.57750703586593 0.38
vertex -4.32250703586592 -7.57750703586593 -1.80477854883065e-016
vertex -4.32250703586592 -7.57750703586593 0.38
endloop
endfacet
facet normal -1.0 0.0 0.0
outer loop
vertex -4.32250703586592 -7.57750703586593 -1.80477854883065e-016
vertex -4.32250703586592 7.57750703586593 0.38
vertex -4.32250703586592 7.57750703586593 -1.80477854883065e-016
endloop
endfacet
facet normal 0.0 1.0 0.0
outer loop
vertex -4.32250703586592 7.57750703586593 0.38
vertex 4.32250703586592 7.57750703586593 -1.80477854883065e-016
vertex -4.32250703586592 7.57750703586593 -1.80477854883065e-016
endloop
endfacet
facet normal 0.0 1.0 0.0
outer loop
vertex 4.32250703586592 7.57750703586593 -1.80477854883065e-016
vertex -4.32250703586592 7.57750703586593 0.38
vertex 4.32250703586592 7.57750703586593 0.38
endloop
endfacet
facet normal 1.0 0.0 0.0
outer loop
vertex 4.32250703586592 7.57750703586593 -1.80477854883065e-016
vertex 4.32250703586592 -7.57750703586593 0.38
vertex 4.32250703586592 -7.57750703586593 -1.80477854883065e-016
endloop
endfacet
facet normal 1.0 0.0 0.0
outer loop
vertex 4.32250703586592 -7.57750703586593 0.38
vertex 4.32250703586592 7.57750703586593 -1.80477854883065e-016
vertex 4.32250703586592 7.57750703586593 0.38
endloop
endfacet
facet normal -0.0 -1.0 -0.0
outer loop
vertex 4.32250703586592 -7.57750703586593 0.38
vertex -4.32250703586592 -7.57750703586593 -1.80477854883065e-016
vertex 4.32250703586592 -7.57750703586593 -1.80477854883065e-016
endloop
endfacet
facet normal -0.0 -1.0 -0.0
outer loop
vertex -4.32250703586592 -7.57750703586593 -1.80477854883065e-016
vertex 4.32250703586592 -7.57750703586593 0.38
vertex -4.32250703586592 -7.57750703586593 0.38
endloop
endfacet
facet normal 0.0 0.0 -1.0
outer loop
vertex -0.695106472933661 4.12965920705916 1.05496216195269
vertex -0.212926297756594 -4.18222070078277 1.05496216195269
vertex -0.736569275371641 -3.97417996541863 1.05496216195269
endloop
endfacet
facet normal 0.0 0.0 -1.0
outer loop
vertex -0.212926297756594 -4.18222070078277 1.05496216195269
vertex -0.695106472933661 4.12965920705916 1.05496216195269
vertex 0.998015065969411 3.97191103295957 1.05496216195269
endloop
endfacet
facet normal 0.0 0.0 -1.0
outer loop
vertex -0.212926297756594 -4.18222070078277 1.05496216195269
vertex 0.998015065969411 3.97191103295957 1.05496216195269
vertex 0.976398710947454 3.82622674296122 1.05496216195269
endloop
endfacet
facet normal 0.0 0.0 -1.0
outer loop
vertex -0.212926297756594 -4.18222070078277 1.05496216195269
vertex 0.976398710947454 3.82622674296122 1.05496216195269
vertex 0.670758218575601 0.507506295071572 1.05496216195269
endloop
endfacet
facet normal 0.0 0.0 -1.0
outer loop
vertex -0.212926297756594 -4.18222070078277 1.05496216195269
vertex 0.670758218575601 0.507506295071572 1.05496216195269
vertex 0.646881455242982 -4.15916934261019 1.05496216195269
endloop
endfacet
facet normal -0.367425916613745 -0.924818885550445 -0.098530323909858
outer loop
vertex -0.464556111737167 -5.59973756037587 15.2983100136347
vertex -0.736569275371641 -3.97417996541863 1.05496216195269
vertex -0.212926297756594 -4.18222070078277 1.05496216195269
endloop
endfacet
facet normal -0.449484346830829 -0.888453479174166 -0.0928129155741992
outer loop
vertex -2.1517391566239 -4.92942817715678 17.0526312119674
vertex -0.736569275371641 -3.97417996541863 1.05496216195269
vertex -0.464556111737167 -5.59973756037587 15.2983100136347
endloop
endfacet
facet normal 0.0266698593305051 -0.99477660500914 -0.0985303239098581
outer loop
vertex -0.464556111737167 -5.59973756037587 15.2983100136347
vertex -0.212926297756594 -4.18222070078277 1.05496216195269
vertex 0.646881455242982 -4.15916934261019 1.05496216195269
endloop
endfacet
facet normal 0.0349488432884468 -0.994585853055746 -0.0978650052581271
outer loop
vertex 2.05013823049106 -5.53231886151551 15.511174400777
vertex -0.464556111737167 -5.59973756037587 15.2983100136347
vertex 0.646881455242982 -4.15916934261019 1.05496216195269
endloop
endfacet
facet normal 0.992196555820079 -0.0484135836100128 -0.114900476677905
outer loop
vertex 0.670758218575601 0.507506295071572 1.05496216195269
vertex 2.08069065378786 0.439103960125624 13.2589298813338
vertex 2.05013823049106 -5.53231886151551 15.511174400777
endloop
endfacet
facet normal 0.995262260510572 -0.00509219909269369 -0.0970932660475824
outer loop
vertex 0.670758218575601 0.507506295071572 1.05496216195269
vertex 2.05013823049106 -5.53231886151551 15.511174400777
vertex 0.646881455242982 -4.15916934261019 1.05496216195269
endloop
endfacet
facet normal 0.989203148087887 -0.0911015380730924 -0.114793909131677
outer loop
vertex 0.976398710947454 3.82622674296122 1.05496216195269
vertex 2.08069065378786 0.439103960125624 13.2589298813338
vertex 0.670758218575601 0.507506295071572 1.05496216195269
endloop
endfacet
facet normal 0.984199518536595 -0.126288394978502 -0.12410700627317
outer loop
vertex 2.08069065378786 0.439103960125624 13.2589298813338
vertex 2.30565254120099 3.66652594482266 11.7587844288294
vertex 2.37713203482839 3.65793817029607 12.3343733630874
endloop
endfacet
facet normal 0.984199518536595 -0.126288394978502 -0.12410700627317
outer loop
vertex 2.30565254120099 3.66652594482266 11.7587844288294
vertex 2.08069065378786 0.439103960125624 13.2589298813338
vertex 0.976398710947454 3.82622674296122 1.05496216195269
endloop
endfacet
facet normal 0.981528354164972 -0.145637291213601 -0.124063972925933
outer loop
vertex 2.30675562491057 3.67396022164111 11.7587844288294
vertex 2.37713203482839 3.65793817029607 12.3343733630874
vertex 2.30565254120099 3.66652594482266 11.7587844288294
endloop
endfacet
facet normal 0.979473213710663 -0.158782548920485 -0.12417860436331
outer loop
vertex 2.30675562491057 3.67396022164111 11.7587844288294
vertex 2.59865274826142 5.15088588621054 12.1726672563781
vertex 2.37713203482839 3.65793817029607 12.3343733630874
endloop
endfacet
facet normal 0.979473213710663 -0.158782548920485 -0.12417860436331
outer loop
vertex 2.59865274826142 5.15088588621054 12.1726672563781
vertex 2.30675562491057 3.67396022164111 11.7587844288294
vertex 0.998015065969411 3.97191103295957 1.05496216195269
endloop
endfacet
facet normal 0.979473213710663 -0.158782548920485 -0.12417860436331
outer loop
vertex 2.59865274826142 5.15088588621054 12.1726672563781
vertex 0.998015065969411 3.97191103295957 1.05496216195269
vertex 2.6115708185284 5.23794773790031 12.1632372991668
endloop
endfacet
facet normal 0.0697003453068866 0.990377389816682 -0.119559556723821
outer loop
vertex -2.09747359763626 5.67668951829552 13.0523165188626
vertex 2.6115708185284 5.23794773790031 12.1632372991668
vertex -0.695106472933661 4.12965920705916 1.05496216195269
endloop
endfacet
facet normal 0.0920295539574976 0.98775926194057 -0.125945232736318
outer loop
vertex 2.6115708185284 5.23794773790031 12.1632372991668
vertex 0.998015065969411 3.97191103295957 1.05496216195269
vertex -0.695106472933661 4.12965920705916 1.05496216195269
endloop
endfacet
facet normal -0.996123869123233 0.0050966074610023 -0.0878137913732702
outer loop
vertex -0.695106472933661 4.12965920705916 1.05496216195269
vertex -0.736569275371641 -3.97417996541863 1.05496216195269
vertex -2.1517391566239 -4.92942817715678 17.0526312119674
endloop
endfacet
facet normal -0.993098614352764 -0.0369069733554743 -0.11132393043887
outer loop
vertex -2.09823505003104 5.52786485180009 13.1084487924403
vertex -0.695106472933661 4.12965920705916 1.05496216195269
vertex -2.1517391566239 -4.92942817715678 17.0526312119674
endloop
endfacet
facet normal -0.993098614352764 -0.0369069733554743 -0.11132393043887
outer loop
vertex -0.695106472933661 4.12965920705916 1.05496216195269
vertex -2.09823505003104 5.52786485180009 13.1084487924403
vertex -2.09747359763626 5.67668951829552 13.0523165188626
endloop
endfacet
facet normal 0.981528354164963 -0.145637291213663 -0.124063972925933
outer loop
vertex 0.976398710947454 3.82622674296122 1.05496216195269
vertex 2.30675562491057 3.67396022164111 11.7587844288294
vertex 2.30565254120099 3.66652594482266 11.7587844288294
endloop
endfacet
facet normal 0.981528354164963 -0.145637291213663 -0.124063972925933
outer loop
vertex 2.30675562491057 3.67396022164111 11.7587844288294
vertex 0.976398710947454 3.82622674296122 1.05496216195269
vertex 0.998015065969411 3.97191103295957 1.05496216195269
endloop
endfacet
endsolid x-wing-stand
